<mxfile host="app.diagrams.net" modified="2020-10-25T13:04:23.939Z" agent="5.0 (Windows)" etag="9q3cFVumE6rLD3Hsa5Xg" version="13.8.2" type="github">
  <diagram id="C5RBs43oDa-KdzZeNtuy" name="Page-1">
    <mxGraphModel dx="2062" dy="791" grid="1" gridSize="10" guides="1" tooltips="1" connect="1" arrows="1" fold="1" page="1" pageScale="1" pageWidth="827" pageHeight="1169" math="0" shadow="0">
      <root>
        <mxCell id="WIyWlLk6GJQsqaUBKTNV-0" />
        <mxCell id="WIyWlLk6GJQsqaUBKTNV-1" parent="WIyWlLk6GJQsqaUBKTNV-0" />
        <mxCell id="3nTmCw3seRrjgoZ59tLl-4" value="GameManager" style="swimlane;fontStyle=1;align=left;verticalAlign=top;childLayout=stackLayout;horizontal=1;startSize=26;horizontalStack=0;resizeParent=1;resizeParentMax=0;resizeLast=0;collapsible=1;marginBottom=0;" parent="WIyWlLk6GJQsqaUBKTNV-1" vertex="1">
          <mxGeometry x="70" y="140" width="250" height="360" as="geometry" />
        </mxCell>
        <mxCell id="3nTmCw3seRrjgoZ59tLl-5" value="+&lt;b&gt;&lt;font color=&quot;#FF8000&quot;&gt;GameManager&lt;/font&gt;&lt;/b&gt; const: instance&lt;br&gt;+&lt;b&gt;&lt;font color=&quot;#FF8000&quot;&gt;BoarManager&lt;/font&gt;&lt;/b&gt;: boardScript&lt;br&gt;+&lt;b&gt;&lt;font color=&quot;#FF8000&quot;&gt;Player &lt;/font&gt;&lt;/b&gt;:player&lt;br&gt;+&lt;b&gt;&lt;font color=&quot;#FF8000&quot;&gt;Enemy &lt;/font&gt;&lt;/b&gt;: enemy&lt;br&gt;&lt;br&gt;Int: &lt;font color=&quot;#0000FF&quot;&gt;level&lt;/font&gt;&lt;br&gt;bool: &lt;font color=&quot;#0000FF&quot;&gt;doingSetup&lt;/font&gt;&lt;br&gt;&lt;br&gt;&lt;font color=&quot;#006633&quot;&gt;// posiciones de instanciar jugador y enemigos&lt;/font&gt;&lt;br&gt;&lt;br&gt;&lt;b&gt;&lt;font color=&quot;#80FF00&quot;&gt;GameObject &lt;/font&gt;&lt;/b&gt;: ini_player&lt;br&gt;&lt;font color=&quot;#80FF00&quot;&gt;GameObject&lt;/font&gt;: ini_enemy&lt;br&gt;&lt;br&gt;&lt;br&gt;&lt;br&gt;" style="text;strokeColor=none;fillColor=none;align=left;verticalAlign=top;spacingLeft=4;spacingRight=4;overflow=hidden;rotatable=0;points=[[0,0.5],[1,0.5]];portConstraint=eastwest;html=1;whiteSpace=wrap;" parent="3nTmCw3seRrjgoZ59tLl-4" vertex="1">
          <mxGeometry y="26" width="250" height="204" as="geometry" />
        </mxCell>
        <mxCell id="3nTmCw3seRrjgoZ59tLl-6" value="" style="line;strokeWidth=1;fillColor=none;align=left;verticalAlign=middle;spacingTop=-1;spacingLeft=3;spacingRight=3;rotatable=0;labelPosition=right;points=[];portConstraint=eastwest;" parent="3nTmCw3seRrjgoZ59tLl-4" vertex="1">
          <mxGeometry y="230" width="250" height="8" as="geometry" />
        </mxCell>
        <mxCell id="3nTmCw3seRrjgoZ59tLl-7" value="+&lt;b&gt;Awake()&lt;/b&gt;: instancia los objetos necesarios.&lt;br&gt;&lt;div&gt;+I&lt;b&gt;nitGame()&lt;/b&gt;: carga la habitacion (&lt;b&gt;&lt;i&gt;BoardScript.SetupScene()&lt;/i&gt;&lt;/b&gt;);&lt;/div&gt;&lt;div&gt;+&lt;b&gt;TakeDamage(string ColliderTag)&lt;/b&gt;: gestiona cuando el arma choca con algo y aplica el daño al enemigo&lt;u&gt;&lt;b&gt;( esto ahora se deberia de quitar de aqui)&lt;/b&gt;&lt;/u&gt;**&lt;br&gt;&lt;/div&gt;" style="text;strokeColor=none;fillColor=none;align=left;verticalAlign=top;spacingLeft=4;spacingRight=4;overflow=hidden;rotatable=0;points=[[0,0.5],[1,0.5]];portConstraint=eastwest;textDirection=ltr;html=1;whiteSpace=wrap;" parent="3nTmCw3seRrjgoZ59tLl-4" vertex="1">
          <mxGeometry y="238" width="250" height="122" as="geometry" />
        </mxCell>
        <mxCell id="9N0CPYYPgfrHTGAJbzb9-8" value="Player" style="swimlane;fontStyle=1;align=left;verticalAlign=top;childLayout=stackLayout;horizontal=1;startSize=26;horizontalStack=0;resizeParent=1;resizeParentMax=0;resizeLast=0;collapsible=1;marginBottom=0;whiteSpace=wrap;html=1;" vertex="1" parent="WIyWlLk6GJQsqaUBKTNV-1">
          <mxGeometry x="460" y="120" width="260" height="670" as="geometry" />
        </mxCell>
        <mxCell id="9N0CPYYPgfrHTGAJbzb9-9" value="+&lt;font color=&quot;#FF8000&quot;&gt;&lt;b&gt;BoxCollider2d &lt;/b&gt;&lt;/font&gt;boxcollider&lt;br&gt;+&lt;font color=&quot;#FF8000&quot;&gt;&lt;b&gt;RigidBody2D &lt;/b&gt;&lt;/font&gt;rb2D&lt;br&gt;&lt;br&gt;+&lt;b&gt;&lt;font color=&quot;#FF8000&quot;&gt;Animator &lt;/font&gt;&lt;/b&gt;animator&lt;br&gt;&lt;br&gt;+&lt;b&gt;&lt;font color=&quot;#FF8000&quot;&gt;Vector2 &lt;/font&gt;&lt;/b&gt;movementDirection&lt;br&gt;+float &lt;font color=&quot;#3333FF&quot;&gt;movementSpeed&lt;/font&gt;&lt;br&gt;+float &lt;font color=&quot;#3333FF&quot;&gt;moveX&lt;/font&gt;&lt;br&gt;+float &lt;font color=&quot;#3333FF&quot;&gt;moveY&lt;/font&gt;&lt;br&gt;&lt;br&gt;+float &lt;font color=&quot;#3333FF&quot;&gt;MOVEMENT_BASE_SPEED &lt;/font&gt;= 3.0f&lt;br&gt;&lt;br&gt;+int &lt;font color=&quot;#3333FF&quot;&gt;playerhealth &lt;/font&gt;= 3&lt;br&gt;+float &lt;font color=&quot;#3333FF&quot;&gt;inmuneTime &lt;/font&gt;= 2.0f&lt;br&gt;+float &lt;font color=&quot;#3333FF&quot;&gt;passinsTime &lt;/font&gt;= inmuneTime&lt;br&gt;+bool &lt;font color=&quot;#3333FF&quot;&gt;playerInmune &lt;/font&gt;= false&lt;div&gt;&lt;br&gt;&lt;/div&gt;&lt;div&gt;&lt;br&gt;&lt;/div&gt;&lt;div&gt;&lt;br&gt;&lt;/div&gt;&lt;div&gt;&lt;br&gt;&lt;br&gt;&lt;/div&gt;" style="text;strokeColor=none;fillColor=none;align=left;verticalAlign=top;spacingLeft=4;spacingRight=4;overflow=hidden;rotatable=0;points=[[0,0.5],[1,0.5]];portConstraint=eastwest;html=1;whiteSpace=wrap;" vertex="1" parent="9N0CPYYPgfrHTGAJbzb9-8">
          <mxGeometry y="26" width="260" height="264" as="geometry" />
        </mxCell>
        <mxCell id="9N0CPYYPgfrHTGAJbzb9-10" value="" style="line;strokeWidth=1;fillColor=none;align=left;verticalAlign=middle;spacingTop=-1;spacingLeft=3;spacingRight=3;rotatable=0;labelPosition=right;points=[];portConstraint=eastwest;" vertex="1" parent="9N0CPYYPgfrHTGAJbzb9-8">
          <mxGeometry y="290" width="260" height="8" as="geometry" />
        </mxCell>
        <mxCell id="9N0CPYYPgfrHTGAJbzb9-11" value="&lt;div&gt;&lt;b&gt;+Start()&lt;/b&gt;: inicializar los componentes del jugador&lt;/div&gt;&lt;div&gt;&lt;b&gt;+FixedUpdate():&lt;/b&gt;&lt;/div&gt;&lt;ul&gt;&lt;li&gt;&lt;b&gt;ProcessInputs&lt;/b&gt;()&lt;/li&gt;&lt;li&gt;Trigger animacion movimiento&lt;/li&gt;&lt;li&gt;&lt;b&gt;Move&lt;/b&gt;();&lt;/li&gt;&lt;/ul&gt;&lt;div&gt;+&lt;b&gt;ProcessInputs&lt;/b&gt;(): gestion teclas , movimiento y animaciones, e invulnerabilidad.( esto se podría quitar a un metodo externo)**.&lt;/div&gt;&lt;div&gt;+&lt;b&gt;Move&lt;/b&gt;(): aplica los inputs al movimiento del RigidBody jugador.&lt;/div&gt;&lt;div&gt;+&lt;b&gt;OnCollisionEnter2D&lt;/b&gt;(): si choca con enemigo:&lt;/div&gt;&lt;ul&gt;&lt;li&gt;Animacion daño&lt;/li&gt;&lt;li&gt;Restar vida&lt;/li&gt;&lt;li&gt;Resetear contador inmune&lt;/li&gt;&lt;/ul&gt;&lt;div&gt;+&lt;b&gt;OnCollisionStay2D&lt;/b&gt;(): igual que arriba.&lt;/div&gt;&lt;div&gt;+&lt;b&gt;SetPlayerHealth&lt;/b&gt;(int modifyhealth).&lt;/div&gt;&lt;div&gt;+&lt;b&gt;UpdatePlayerhealth&lt;/b&gt;(): llamada al healthManager para actualizarse.&lt;br&gt;&lt;/div&gt;&lt;div&gt;&lt;br&gt;&lt;/div&gt;&lt;div&gt;&lt;br&gt;&lt;br&gt;&lt;/div&gt;" style="text;strokeColor=none;fillColor=none;align=left;verticalAlign=top;spacingLeft=4;spacingRight=4;overflow=hidden;rotatable=0;points=[[0,0.5],[1,0.5]];portConstraint=eastwest;textDirection=ltr;html=1;whiteSpace=wrap;" vertex="1" parent="9N0CPYYPgfrHTGAJbzb9-8">
          <mxGeometry y="298" width="260" height="372" as="geometry" />
        </mxCell>
        <mxCell id="9N0CPYYPgfrHTGAJbzb9-12" value="Instancia un jugador" style="endArrow=block;endFill=1;html=1;edgeStyle=orthogonalEdgeStyle;align=left;verticalAlign=top;fontColor=#FF8000;exitX=1;exitY=0.5;exitDx=0;exitDy=0;entryX=0;entryY=0.5;entryDx=0;entryDy=0;" edge="1" parent="WIyWlLk6GJQsqaUBKTNV-1" source="3nTmCw3seRrjgoZ59tLl-5" target="9N0CPYYPgfrHTGAJbzb9-9">
          <mxGeometry x="-0.4444" y="21" relative="1" as="geometry">
            <mxPoint x="320" y="840" as="sourcePoint" />
            <mxPoint x="480" y="840" as="targetPoint" />
            <Array as="points">
              <mxPoint x="360" y="268" />
              <mxPoint x="360" y="268" />
            </Array>
            <mxPoint x="-10" y="3" as="offset" />
          </mxGeometry>
        </mxCell>
        <mxCell id="9N0CPYYPgfrHTGAJbzb9-13" value="1" style="edgeLabel;resizable=0;html=1;align=left;verticalAlign=bottom;" connectable="0" vertex="1" parent="9N0CPYYPgfrHTGAJbzb9-12">
          <mxGeometry x="-1" relative="1" as="geometry" />
        </mxCell>
        <mxCell id="9N0CPYYPgfrHTGAJbzb9-18" value="+&lt;font color=&quot;#FF8000&quot;&gt;&lt;b&gt;BoxCollider2d &lt;/b&gt;&lt;/font&gt;boxcollider&lt;br&gt;+&lt;font color=&quot;#FF8000&quot;&gt;&lt;b&gt;RigidBody2D &lt;/b&gt;&lt;/font&gt;rb2D&lt;br&gt;&lt;br&gt;+&lt;b&gt;&lt;font color=&quot;#FF8000&quot;&gt;Animator &lt;/font&gt;&lt;/b&gt;animator&lt;br&gt;&lt;br&gt;+&lt;b&gt;&lt;font color=&quot;#FF8000&quot;&gt;Vector2 &lt;/font&gt;&lt;/b&gt;movementDirection&lt;br&gt;+float &lt;font color=&quot;#3333FF&quot;&gt;movementSpeed&lt;/font&gt;&lt;br&gt;+float &lt;font color=&quot;#3333FF&quot;&gt;moveX&lt;/font&gt;&lt;br&gt;+float &lt;font color=&quot;#3333FF&quot;&gt;moveY&lt;/font&gt;&lt;br&gt;&lt;br&gt;+float &lt;font color=&quot;#3333FF&quot;&gt;MOVEMENT_BASE_SPEED &lt;/font&gt;= 3.0f&lt;br&gt;&lt;br&gt;+int &lt;font color=&quot;#3333FF&quot;&gt;playerhealth &lt;/font&gt;= 3&lt;br&gt;+float &lt;font color=&quot;#3333FF&quot;&gt;inmuneTime &lt;/font&gt;= 2.0f&lt;br&gt;+float &lt;font color=&quot;#3333FF&quot;&gt;passinsTime &lt;/font&gt;= inmuneTime&lt;br&gt;+bool &lt;font color=&quot;#3333FF&quot;&gt;playerInmune &lt;/font&gt;= false&lt;div&gt;&lt;br&gt;&lt;/div&gt;&lt;div&gt;&lt;br&gt;&lt;/div&gt;&lt;div&gt;&lt;br&gt;&lt;/div&gt;&lt;div&gt;&lt;br&gt;&lt;br&gt;&lt;/div&gt;" style="text;strokeColor=none;fillColor=none;align=left;verticalAlign=top;spacingLeft=4;spacingRight=4;overflow=hidden;rotatable=0;points=[[0,0.5],[1,0.5]];portConstraint=eastwest;html=1;whiteSpace=wrap;" vertex="1" parent="WIyWlLk6GJQsqaUBKTNV-1">
          <mxGeometry x="460" y="146" width="260" height="264" as="geometry" />
        </mxCell>
        <mxCell id="9N0CPYYPgfrHTGAJbzb9-19" value="Weapon" style="swimlane;fontStyle=1;align=left;verticalAlign=top;childLayout=stackLayout;horizontal=1;startSize=26;horizontalStack=0;resizeParent=1;resizeParentMax=0;resizeLast=0;collapsible=1;marginBottom=0;whiteSpace=wrap;html=1;" vertex="1" parent="WIyWlLk6GJQsqaUBKTNV-1">
          <mxGeometry x="860" y="130" width="273" height="510" as="geometry" />
        </mxCell>
        <mxCell id="9N0CPYYPgfrHTGAJbzb9-20" value="&lt;div&gt;&lt;b&gt;&lt;font color=&quot;#FF8000&quot;&gt;GameObject &lt;/font&gt;&lt;/b&gt;Weapon&lt;/div&gt;&lt;div&gt;&lt;b&gt;&lt;font color=&quot;#FF8000&quot;&gt;Animator &lt;/font&gt;&lt;/b&gt;weaponAnimator&lt;/div&gt;&lt;div&gt;&lt;b&gt;&lt;font color=&quot;#FF8000&quot;&gt;SpriteRenderer &lt;/font&gt;&lt;/b&gt;weaponRenderer&lt;/div&gt;&lt;div&gt;&lt;b&gt;&lt;font color=&quot;#FF8000&quot;&gt;BoxCollider2D &lt;/font&gt;&lt;/b&gt;weaponCollider&lt;/div&gt;&lt;div&gt;&lt;br&gt;&lt;/div&gt;&lt;div&gt;&lt;b&gt;&lt;font color=&quot;#FF8000&quot;&gt;GameObject &lt;/font&gt;&lt;/b&gt;player&lt;/div&gt;&lt;div&gt;&lt;b&gt;&lt;font color=&quot;#FF8000&quot;&gt;Animator &lt;/font&gt;&lt;/b&gt;playerAnimator&lt;/div&gt;&lt;div&gt;&lt;br&gt;&lt;/div&gt;&lt;div&gt;float &lt;font color=&quot;#3333FF&quot;&gt;timeBtwAttack&lt;/font&gt;&lt;/div&gt;&lt;div&gt;float &lt;font color=&quot;#3333FF&quot;&gt;startTimeBtwAttack&lt;/font&gt;&lt;/div&gt;&lt;div&gt;float &lt;font color=&quot;#3333FF&quot;&gt;moveX&lt;/font&gt;&lt;/div&gt;&lt;div&gt;float &lt;font color=&quot;#3333FF&quot;&gt;moveY&lt;/font&gt;&lt;br&gt;&lt;/div&gt;" style="text;strokeColor=none;fillColor=none;align=left;verticalAlign=top;spacingLeft=4;spacingRight=4;overflow=hidden;rotatable=0;points=[[0,0.5],[1,0.5]];portConstraint=eastwest;html=1;whiteSpace=wrap;" vertex="1" parent="9N0CPYYPgfrHTGAJbzb9-19">
          <mxGeometry y="26" width="273" height="194" as="geometry" />
        </mxCell>
        <mxCell id="9N0CPYYPgfrHTGAJbzb9-21" value="" style="line;strokeWidth=1;fillColor=none;align=left;verticalAlign=middle;spacingTop=-1;spacingLeft=3;spacingRight=3;rotatable=0;labelPosition=right;points=[];portConstraint=eastwest;" vertex="1" parent="9N0CPYYPgfrHTGAJbzb9-19">
          <mxGeometry y="220" width="273" height="8" as="geometry" />
        </mxCell>
        <mxCell id="9N0CPYYPgfrHTGAJbzb9-22" value="&lt;div&gt;&lt;b&gt;+Start()&lt;/b&gt;:inicializa los componentes del arma y jugador( se podría mejorar**??)&lt;br&gt;&lt;/div&gt;&lt;div&gt;&lt;b&gt;+Update():&lt;/b&gt;&lt;/div&gt;&lt;div&gt;&lt;b&gt;ProcessInputs&lt;/b&gt;&lt;/div&gt;&lt;div&gt;&lt;b&gt;&lt;br&gt;&lt;/b&gt;&lt;/div&gt;&lt;div&gt;&lt;b&gt;ProcessInputs&lt;/b&gt;():Gestiona un CD interno para no spamear ataques&lt;/div&gt;&lt;ul&gt;&lt;li&gt;&lt;b&gt;SetDirectionalAttack&lt;/b&gt;():asigna las variables de animaciones del ataque&lt;/li&gt;&lt;li&gt;Si se ataca, gestiona la animacion, el reset/trigger , el tiempo de espera, y comprueba que esto se cumpla antes de volver a atacar.&lt;b&gt;&lt;br&gt;&lt;/b&gt;&lt;/li&gt;&lt;/ul&gt;&lt;div&gt;&lt;b&gt;+ResetWeapon():&lt;/b&gt; fuerza al arma a volver a su estado original y desaparecer y desactivar su sprite y collider.&lt;b&gt;&lt;br&gt;&lt;/b&gt;&lt;/div&gt;&lt;br&gt;&lt;div&gt;&lt;br&gt;&lt;/div&gt;&lt;div&gt;&lt;br&gt;&lt;br&gt;&lt;/div&gt;" style="text;strokeColor=none;fillColor=none;align=left;verticalAlign=top;spacingLeft=4;spacingRight=4;overflow=hidden;rotatable=0;points=[[0,0.5],[1,0.5]];portConstraint=eastwest;textDirection=ltr;html=1;whiteSpace=wrap;" vertex="1" parent="9N0CPYYPgfrHTGAJbzb9-19">
          <mxGeometry y="228" width="273" height="282" as="geometry" />
        </mxCell>
        <mxCell id="9N0CPYYPgfrHTGAJbzb9-23" value="Tiene un arma" style="endArrow=block;endFill=1;html=1;edgeStyle=orthogonalEdgeStyle;align=left;verticalAlign=top;fontColor=#FF8000;" edge="1" parent="WIyWlLk6GJQsqaUBKTNV-1" target="9N0CPYYPgfrHTGAJbzb9-20">
          <mxGeometry x="-0.0625" y="25" relative="1" as="geometry">
            <mxPoint x="720" y="280" as="sourcePoint" />
            <mxPoint x="830" y="280" as="targetPoint" />
            <Array as="points">
              <mxPoint x="720" y="278" />
              <mxPoint x="775" y="278" />
              <mxPoint x="775" y="260" />
            </Array>
            <mxPoint x="-15" y="5" as="offset" />
          </mxGeometry>
        </mxCell>
        <mxCell id="9N0CPYYPgfrHTGAJbzb9-24" value="1" style="edgeLabel;resizable=0;html=1;align=left;verticalAlign=bottom;" connectable="0" vertex="1" parent="9N0CPYYPgfrHTGAJbzb9-23">
          <mxGeometry x="-1" relative="1" as="geometry" />
        </mxCell>
        <mxCell id="9N0CPYYPgfrHTGAJbzb9-25" value="HealthManager" style="swimlane;fontStyle=1;align=left;verticalAlign=top;childLayout=stackLayout;horizontal=1;startSize=26;horizontalStack=0;resizeParent=1;resizeParentMax=0;resizeLast=0;collapsible=1;marginBottom=0;whiteSpace=wrap;html=1;" vertex="1" parent="WIyWlLk6GJQsqaUBKTNV-1">
          <mxGeometry x="820" y="680" width="273" height="510" as="geometry" />
        </mxCell>
        <mxCell id="9N0CPYYPgfrHTGAJbzb9-26" value="&lt;div&gt;&lt;b&gt;&lt;font color=&quot;#FF8000&quot;&gt;GameObject &lt;/font&gt;&lt;/b&gt;Weapon&lt;/div&gt;&lt;div&gt;&lt;b&gt;&lt;font color=&quot;#FF8000&quot;&gt;Animator &lt;/font&gt;&lt;/b&gt;weaponAnimator&lt;/div&gt;&lt;div&gt;&lt;b&gt;&lt;font color=&quot;#FF8000&quot;&gt;SpriteRenderer &lt;/font&gt;&lt;/b&gt;weaponRenderer&lt;/div&gt;&lt;div&gt;&lt;b&gt;&lt;font color=&quot;#FF8000&quot;&gt;BoxCollider2D &lt;/font&gt;&lt;/b&gt;weaponCollider&lt;/div&gt;&lt;div&gt;&lt;br&gt;&lt;/div&gt;&lt;div&gt;&lt;b&gt;&lt;font color=&quot;#FF8000&quot;&gt;GameObject &lt;/font&gt;&lt;/b&gt;player&lt;/div&gt;&lt;div&gt;&lt;b&gt;&lt;font color=&quot;#FF8000&quot;&gt;Animator &lt;/font&gt;&lt;/b&gt;playerAnimator&lt;/div&gt;&lt;div&gt;&lt;br&gt;&lt;/div&gt;&lt;div&gt;float &lt;font color=&quot;#3333FF&quot;&gt;timeBtwAttack&lt;/font&gt;&lt;/div&gt;&lt;div&gt;float &lt;font color=&quot;#3333FF&quot;&gt;startTimeBtwAttack&lt;/font&gt;&lt;/div&gt;&lt;div&gt;float &lt;font color=&quot;#3333FF&quot;&gt;moveX&lt;/font&gt;&lt;/div&gt;&lt;div&gt;float &lt;font color=&quot;#3333FF&quot;&gt;moveY&lt;/font&gt;&lt;br&gt;&lt;/div&gt;" style="text;strokeColor=none;fillColor=none;align=left;verticalAlign=top;spacingLeft=4;spacingRight=4;overflow=hidden;rotatable=0;points=[[0,0.5],[1,0.5]];portConstraint=eastwest;html=1;whiteSpace=wrap;" vertex="1" parent="9N0CPYYPgfrHTGAJbzb9-25">
          <mxGeometry y="26" width="273" height="194" as="geometry" />
        </mxCell>
        <mxCell id="9N0CPYYPgfrHTGAJbzb9-27" value="" style="line;strokeWidth=1;fillColor=none;align=left;verticalAlign=middle;spacingTop=-1;spacingLeft=3;spacingRight=3;rotatable=0;labelPosition=right;points=[];portConstraint=eastwest;" vertex="1" parent="9N0CPYYPgfrHTGAJbzb9-25">
          <mxGeometry y="220" width="273" height="8" as="geometry" />
        </mxCell>
        <mxCell id="9N0CPYYPgfrHTGAJbzb9-28" value="&lt;div&gt;&lt;b&gt;+Start()&lt;/b&gt;:inicializa los componentes del arma y jugador( se podría mejorar**??)&lt;br&gt;&lt;/div&gt;&lt;div&gt;&lt;b&gt;+Update():&lt;/b&gt;&lt;/div&gt;&lt;div&gt;&lt;b&gt;ProcessInputs&lt;/b&gt;&lt;/div&gt;&lt;div&gt;&lt;b&gt;&lt;br&gt;&lt;/b&gt;&lt;/div&gt;&lt;div&gt;&lt;b&gt;ProcessInputs&lt;/b&gt;():Gestiona un CD interno para no spamear ataques&lt;/div&gt;&lt;ul&gt;&lt;li&gt;&lt;b&gt;SetDirectionalAttack&lt;/b&gt;():asigna las variables de animaciones del ataque&lt;/li&gt;&lt;li&gt;Si se ataca, gestiona la animacion, el reset/trigger , el tiempo de espera, y comprueba que esto se cumpla antes de volver a atacar.&lt;b&gt;&lt;br&gt;&lt;/b&gt;&lt;/li&gt;&lt;/ul&gt;&lt;div&gt;&lt;b&gt;+ResetWeapon():&lt;/b&gt; fuerza al arma a volver a su estado original y desaparecer y desactivar su sprite y collider.&lt;b&gt;&lt;br&gt;&lt;/b&gt;&lt;/div&gt;&lt;br&gt;&lt;div&gt;&lt;br&gt;&lt;/div&gt;&lt;div&gt;&lt;br&gt;&lt;br&gt;&lt;/div&gt;" style="text;strokeColor=none;fillColor=none;align=left;verticalAlign=top;spacingLeft=4;spacingRight=4;overflow=hidden;rotatable=0;points=[[0,0.5],[1,0.5]];portConstraint=eastwest;textDirection=ltr;html=1;whiteSpace=wrap;" vertex="1" parent="9N0CPYYPgfrHTGAJbzb9-25">
          <mxGeometry y="228" width="273" height="282" as="geometry" />
        </mxCell>
      </root>
    </mxGraphModel>
  </diagram>
</mxfile>
